<?xml version="1.0" standalone="no"?>
<!DOCTYPE svg PUBLIC "-//W3C//DTD SVG 1.1//EN" "http://www.w3.org/Graphics/SVG/1.1/DTD/svg11.dtd">
<!--Generator: Xara Designer (www.xara.com), SVG filter version: 3.0.2.3-->
<svg stroke-width="0.501" stroke-linejoin="bevel" fill-rule="evenodd" xmlns:xlink="http://www.w3.org/1999/xlink" xmlns="http://www.w3.org/2000/svg" version="1.1" overflow="visible" width="420.946pt" height="420.946pt" viewBox="0 0 420.946 420.946">
 <defs>
  <marker id="DefaultArrow2" markerUnits="strokeWidth" viewBox="0 0 1 1" markerWidth="1" markerHeight="1" overflow="visible" orient="auto">
   <!-- REF_ARROW_STRAIGHT (-2) -->
   <g transform="scale(0.0092592592)">
    <!-- 1/108 -->
    <path d="M -9 54 L -9 -54 L 117 0 z"/>
   </g>
  </marker>
  <marker id="DefaultArrow3" markerUnits="strokeWidth" viewBox="0 0 1 1" markerWidth="1" markerHeight="1" overflow="visible" orient="auto">
   <!-- REF_ARROW_ANGLED -->
   <g transform="scale(0.0092592592)">
    <path d="M -27 54 L -9 0 L -27 -54 L 135 0 z"/>
   </g>
  </marker>
  <marker id="DefaultArrow4" markerUnits="strokeWidth" viewBox="0 0 1 1" markerWidth="1" markerHeight="1" overflow="visible" orient="auto">
   <!-- REF_ARROW_ROUNDED -->
   <g transform="scale(0.0092592592)">
    <path d="M -9,0 L -9,-45 C -9,-51.708 2.808,-56.580 9,-54 L 117,-9 C 120.916,-7.369 126.000,-4.242 126,0 C 126,4.242 120.916,7.369 117,9 L 9,54 C 2.808,56.580 -9,51.708 -9,45 z"/>
   </g>
  </marker>
  <marker id="DefaultArrow5" markerUnits="strokeWidth" viewBox="0 0 1 1" markerWidth="1" markerHeight="1" overflow="visible" orient="auto">
   <!-- REF_ARROW_SPOT -->
   <g transform="scale(0.0092592592)">
    <path d="M -54, 0 C -54,29.807 -29.807,54 0,54 C 29.807,54 54,29.807 54,0 C 54,-29.807 29.807,-54 0,-54 C -29.807,-54 -54,-29.807 -54,0 z"/>
   </g>
  </marker>
  <marker id="DefaultArrow6" markerUnits="strokeWidth" viewBox="0 0 1 1" markerWidth="1" markerHeight="1" overflow="visible" orient="auto">
   <!-- REF_ARROW_DIAMOND -->
   <g transform="scale(0.0092592592)">
    <path d="M -63,0 L 0,63 L 63,0 L 0,-63 z"/>
   </g>
  </marker>
  <marker id="DefaultArrow7" markerUnits="strokeWidth" viewBox="0 0 1 1" markerWidth="1" markerHeight="1" overflow="visible" orient="auto">
   <!-- REF_ARROW_FEATHER -->
   <g transform="scale(0.0092592592)">
    <path d="M 18,-54 L 108,-54 L 63,0 L 108,54 L 18, 54 L -36,0 z"/>
   </g>
  </marker>
  <marker id="DefaultArrow8" markerUnits="strokeWidth" viewBox="0 0 1 1" markerWidth="1" markerHeight="1" overflow="visible" orient="auto">
   <!-- REF_ARROW_FEATHER2 -->
   <g transform="scale(0.0092592592)">
    <path d="M -36,0 L 18,-54 L 54,-54 L 18,-18 L 27,-18 L 63,-54 L 99,-54 L 63,-18 L 72,-18 L 108,-54 L 144,-54 L 90,0 L 144,54 L 108,54 L 72,18 L 63,18 L 99,54 L 63,54 L 27,18 L 18,18 L 54,54 L 18,54 z"/>
   </g>
  </marker>
  <marker id="DefaultArrow9" markerUnits="strokeWidth" viewBox="0 0 1 1" markerWidth="1" markerHeight="1" overflow="visible" orient="auto">
   <!-- REF_ARROW_HOLLOWDIAMOND -->
   <g transform="scale(0.0092592592)">
    <path d="M 0,45 L -45,0 L 0, -45 L 45, 0 z M 0, 63 L-63, 0 L 0, -63 L 63, 0 z"/>
   </g>
  </marker>
  <filter id="StainedFilter">
   <feBlend mode="multiply" in2="BackgroundImage" in="SourceGraphic" result="blend"/>
   <feComposite in="blend" in2="SourceAlpha" operator="in" result="comp"/>
  </filter>
  <filter id="BleachFilter">
   <feBlend mode="screen" in2="BackgroundImage" in="SourceGraphic" result="blend"/>
   <feComposite in="blend" in2="SourceAlpha" operator="in" result="comp"/>
  </filter>
  <filter id="InvertTransparencyBitmapFilter">
   <feComponentTransfer>
    <feFuncR type="gamma" amplitude="1.055" exponent=".416666666" offset="-0.055"/>
    <feFuncG type="gamma" amplitude="1.055" exponent=".416666666" offset="-0.055"/>
    <feFuncB type="gamma" amplitude="1.055" exponent=".416666666" offset="-0.055"/>
   </feComponentTransfer>
   <feComponentTransfer>
    <feFuncR type="linear" slope="-1" intercept="1"/>
    <feFuncG type="linear" slope="-1" intercept="1"/>
    <feFuncB type="linear" slope="-1" intercept="1"/>
    <feFuncA type="linear" slope="1" intercept="0"/>
   </feComponentTransfer>
   <feComponentTransfer>
    <feFuncR type="gamma" amplitude="1" exponent="2.4" offset="0"/>
    <feFuncG type="gamma" amplitude="1" exponent="2.4" offset="0"/>
    <feFuncB type="gamma" amplitude="1" exponent="2.4" offset="0"/>
   </feComponentTransfer>
  </filter>
 </defs>
 <g id="Document" fill="none" stroke="black" font-family="Times New Roman" font-size="16" transform="scale(1 -1)">
  <g id="Spread" transform="translate(0 -420.946)">
   <g id="Layer 1">
    <g id="Group" stroke-linecap="round" stroke="none">
     <path d="M 18.104,313.198 L 18.104,122.809 L 209.679,46.7 L 209.679,237.089 L 18.104,313.198 Z" fill="#5558a7" stroke-linejoin="miter" stroke-width="0.5" marker-start="none" marker-end="none" stroke-miterlimit="79.8403193612775"/>
     <path d="M 21.174,320.291 L 213.675,243.453 L 406.176,320.291 L 213.675,367.933 L 21.174,320.291 Z" fill="#979eff" stroke-linejoin="miter" stroke-width="0.5" marker-start="none" marker-end="none" stroke-miterlimit="79.8403193612775"/>
     <path d="M 409.297,313.197 L 409.297,122.808 L 217.722,46.699 L 217.722,237.088 L 409.297,313.197 Z" fill="#212472" stroke-linejoin="miter" stroke-width="0.5" marker-start="none" marker-end="none" stroke-miterlimit="79.8403193612775"/>
     <text xml:space="preserve" transform="translate(215.329 284.153) scale(1 -1) scale(0.892258 1)" font-size="72" fill="#ffffff" font-family="Nasalization" stroke-linejoin="round" stroke-width="0.25" stroke-miterlimit="79.8403193612775"><tspan x="-69.2568981616075" y="0">SEA</tspan></text>
     <g id="Group_1" fill-rule="nonzero" stroke-linejoin="round" stroke-width="0.227" fill="#ffffff" stroke-miterlimit="79.8403193612775">
      <g id="Group_2">
       <g id="Group_3">
        <path d="M 54.86,218.461 L 34.331,225.853 C 33.402,226.188 32.66,226.064 32.107,225.48 C 31.553,224.897 31.267,224.08 31.248,223.029 C 31.229,221.998 31.473,221.021 31.981,220.097 C 32.489,219.172 33.227,218.536 34.195,218.187 L 46.286,213.831 C 49.55,212.654 52.108,210.366 53.966,206.961 C 55.654,203.87 56.473,200.551 56.418,196.999 C 56.363,193.427 55.461,190.719 53.71,188.882 C 51.765,186.836 49.146,186.407 45.854,187.596 L 23.778,195.564 L 23.95,204.693 L 44.608,197.241 C 45.482,196.925 46.201,197.091 46.767,197.738 C 47.272,198.32 47.535,199.15 47.553,200.228 C 47.57,201.264 47.337,202.244 46.856,203.172 C 46.374,204.1 45.669,204.731 44.738,205.066 L 32.607,209.44 C 29.323,210.624 26.748,212.911 24.884,216.297 C 23.185,219.369 22.37,222.661 22.437,226.171 C 22.504,229.681 23.422,232.329 25.188,234.123 C 27.17,236.135 29.796,236.55 33.07,235.372 L 55.001,227.481 L 54.86,218.461 Z" marker-start="none" marker-end="none"/>
        <path d="M 90.567,171.455 L 71.584,178.308 C 67.03,179.951 63.471,183.454 60.912,188.806 C 58.612,193.595 57.508,198.873 57.596,204.634 C 57.686,210.522 58.958,215.082 61.409,218.325 C 64.133,221.914 67.719,222.903 72.176,221.3 L 91.075,214.499 L 90.969,205.458 L 73.476,211.757 C 71.388,212.509 69.728,211.859 68.497,209.802 C 67.383,207.959 66.802,205.402 66.755,202.129 C 66.707,198.751 67.216,195.667 68.286,192.879 C 69.466,189.796 71.084,187.881 73.14,187.14 L 90.678,180.813 L 90.567,171.455 Z" marker-start="none" marker-end="none"/>
        <path d="M 127.322,157.198 L 102.985,177.746 L 102.872,167.013 L 94.401,170.071 L 94.564,184.359 C 94.602,187.791 95.405,190.295 96.97,191.876 C 98.768,193.691 101.388,193.978 104.832,192.737 L 115.34,188.951 C 116.311,188.601 117.077,188.718 117.636,189.302 C 118.138,189.821 118.393,190.599 118.402,191.637 C 118.412,192.693 118.172,193.68 117.684,194.598 C 117.139,195.622 116.382,196.307 115.412,196.657 L 94.789,204.083 L 94.892,213.126 L 116.921,205.198 C 120.21,204.015 122.803,201.728 124.702,198.334 C 126.433,195.254 127.284,191.949 127.256,188.416 C 127.228,184.862 126.337,182.175 124.582,180.363 C 122.635,178.343 120.001,177.931 116.683,179.127 L 111.337,181.055 L 127.404,167.439 L 127.322,157.198 Z" marker-start="none" marker-end="none"/>
        <path d="M 139.371,153.838 L 130.741,156.953 L 131.07,200.107 L 139.662,197.015 L 139.371,153.838 Z" marker-start="none" marker-end="none"/>
        <path d="M 165.466,161.539 L 157.184,164.526 C 155.064,165.29 153.542,165.04 152.616,163.777 C 152,162.912 151.687,161.662 151.677,160.024 C 151.675,159.598 151.679,159.293 151.687,159.11 C 151.695,158.924 151.718,158.751 151.756,158.588 L 151.706,149.385 L 143.214,152.451 C 143.218,153.175 143.224,154.166 143.233,155.422 C 143.24,156.679 143.25,158.32 143.264,160.34 C 143.276,162.362 143.289,164.51 143.305,166.783 C 143.326,170.226 144.117,172.737 145.675,174.324 C 147.465,176.144 150.084,176.433 153.537,175.189 L 164.073,171.393 C 165.046,171.042 165.811,171.16 166.368,171.745 C 166.867,172.267 167.119,173.047 167.123,174.088 C 167.127,175.147 166.882,176.138 166.389,177.059 C 165.839,178.085 165.077,178.772 164.105,179.123 L 143.43,186.568 L 143.487,195.638 L 165.571,187.691 C 168.869,186.504 171.476,184.211 173.393,180.807 C 175.141,177.718 176.01,174.403 175.999,170.859 C 175.989,167.294 175.111,164.599 173.364,162.781 C 171.426,160.754 168.792,160.34 165.466,161.539 Z" marker-start="none" marker-end="none"/>
        <path d="M 204.202,164.684 L 195.403,167.853 L 195.371,133.623 L 186.861,136.695 L 186.922,170.906 L 178.158,174.062 L 178.183,183.153 L 204.203,173.789 L 204.202,164.684 Z" marker-start="none" marker-end="none"/>
       </g>
      </g>
     </g>
     <g id="Group_4" fill-rule="nonzero" stroke-linejoin="round" stroke-width="0.25" fill="#ffffff" stroke-miterlimit="79.8403193612775">
      <g id="Group_5">
       <g id="Group_6">
        <path d="M 250.205,173.816 L 241.413,170.487 L 241.529,134.664 L 232.981,131.395 L 232.922,167.271 L 224.128,163.94 L 224.128,173.455 L 250.159,183.288 L 250.205,173.816 Z" marker-start="none" marker-end="none"/>
        <path d="M 274.087,147.112 L 261.371,142.25 C 256.792,140.499 253.159,141.446 250.49,145.087 C 248.091,148.338 246.882,153.011 246.857,159.082 C 246.83,165.288 248.014,170.996 250.395,176.214 C 253.041,181.997 256.593,185.718 261.058,187.405 L 273.667,192.168 C 278.121,193.85 281.691,192.824 284.396,189.082 C 286.83,185.702 288.087,180.942 288.161,174.781 C 288.234,168.73 287.127,163.198 284.832,158.193 C 282.256,152.567 278.674,148.865 274.087,147.112 Z M 272.565,156.393 C 274.607,157.171 276.233,159.188 277.444,162.433 C 278.542,165.369 279.072,168.608 279.036,172.145 C 279,175.573 278.429,178.247 277.324,180.173 C 276.102,182.321 274.439,182.994 272.331,182.196 L 262.551,178.492 C 260.458,177.699 258.82,175.775 257.635,172.709 C 256.564,169.953 256.037,166.855 256.057,163.414 C 256.079,159.862 256.651,157.036 257.776,154.941 C 259.017,152.624 260.672,151.858 262.737,152.645 L 272.565,156.393 Z" marker-start="none" marker-end="none"/>
        <path d="M 316.16,163.198 L 303.553,158.378 C 299.013,156.641 295.393,157.583 292.709,161.199 C 290.299,164.427 289.059,169.067 288.986,175.095 C 288.911,181.255 290.044,186.922 292.37,192.101 C 294.956,197.841 298.46,201.533 302.887,203.206 L 315.39,207.929 C 319.805,209.596 323.364,208.576 326.083,204.86 C 328.53,201.503 329.818,196.777 329.94,190.66 C 330.06,184.653 329.002,179.161 326.759,174.193 C 324.241,168.609 320.708,164.937 316.16,163.198 Z M 314.573,172.412 C 316.598,173.184 318.199,175.185 319.378,178.407 C 320.447,181.321 320.949,184.536 320.885,188.048 C 320.823,191.451 320.234,194.105 319.12,196.018 C 317.888,198.152 316.229,198.82 314.139,198.029 L 304.442,194.356 C 302.367,193.57 300.753,191.661 299.599,188.617 C 298.555,185.882 298.055,182.807 298.102,179.39 C 298.152,175.865 298.742,173.058 299.877,170.979 C 301.13,168.678 302.782,167.916 304.83,168.697 L 314.573,172.412 Z" marker-start="none" marker-end="none"/>
        <path d="M 365.112,181.915 L 349.865,176.085 C 345.047,174.243 341.169,174.206 338.243,175.978 C 335.971,177.354 334.334,179.784 333.333,183.257 C 332.679,185.534 332.322,188.153 332.262,191.112 C 332.251,191.66 332.252,192.101 332.264,192.438 C 332.276,192.773 332.298,193.069 332.331,193.324 L 331.907,214.168 L 340.355,217.359 L 340.812,196.546 C 340.894,192.785 341.64,189.863 343.051,187.789 C 344.678,185.4 346.875,184.73 349.636,185.783 L 364.856,191.587 L 365.112,181.915 Z" marker-start="none" marker-end="none"/>
        <path d="M 399.503,230.357 L 379.423,222.753 C 378.513,222.408 377.804,221.736 377.298,220.733 C 376.791,219.732 376.553,218.689 376.584,217.606 C 376.615,216.544 376.897,215.73 377.431,215.166 C 377.964,214.6 378.706,214.498 379.655,214.858 L 391.502,219.354 C 394.695,220.566 397.261,220.128 399.208,218.04 C 400.979,216.148 401.928,213.382 402.05,209.733 C 402.174,206.062 401.442,202.641 399.851,199.473 C 398.083,195.949 395.585,193.566 392.358,192.332 L 370.651,184.033 L 370.391,193.499 L 390.691,201.241 C 391.547,201.567 392.231,202.269 392.744,203.346 C 393.202,204.314 393.414,205.353 393.379,206.463 C 393.345,207.529 393.073,208.355 392.566,208.942 C 392.058,209.53 391.349,209.65 390.438,209.303 L 378.538,204.775 C 375.312,203.547 372.714,203.969 370.753,206.04 C 368.966,207.913 368.025,210.667 367.927,214.291 C 367.828,217.916 368.594,221.29 370.217,224.416 C 372.037,227.922 374.55,230.277 377.76,231.489 L 399.196,239.587 L 399.503,230.357 Z" marker-start="none" marker-end="none"/>
       </g>
      </g>
     </g>
    </g>
   </g>
  </g>
 </g>
</svg>
